<?xml version="1.0" encoding="UTF-8" standalone="no"?>
<!DOCTYPE svg PUBLIC "-//W3C//DTD SVG 1.1//EN"
 "http://www.w3.org/Graphics/SVG/1.1/DTD/svg11.dtd">
<!-- Generated by graphviz version 2.40.1 (20161225.0304)
 -->
<!-- Title: %3 Pages: 1 -->
<svg width="487pt" height="864pt"
 viewBox="0.00 0.00 486.53 864.00" xmlns="http://www.w3.org/2000/svg" xmlns:xlink="http://www.w3.org/1999/xlink">
<g id="graph0" class="graph" transform="scale(.9351 .9351) rotate(0) translate(4 920)">
<title>%3</title>
<polygon fill="#ffffff" stroke="transparent" points="-4,4 -4,-920 516.3115,-920 516.3115,4 -4,4"/>
<!-- 4917304208 -->
<g id="node1" class="node">
<title>4917304208</title>
<polygon fill="#caff70" stroke="#000000" points="339.7984,-20 248.1762,-20 248.1762,0 339.7984,0 339.7984,-20"/>
<text text-anchor="middle" x="293.9873" y="-6.4" font-family="Times,serif" font-size="12.00" fill="#000000">AddBackward0</text>
</g>
<!-- 4917303312 -->
<g id="node2" class="node">
<title>4917303312</title>
<polygon fill="#d3d3d3" stroke="#000000" points="401.1364,-188 310.8382,-188 310.8382,-168 401.1364,-168 401.1364,-188"/>
<text text-anchor="middle" x="355.9873" y="-174.4" font-family="Times,serif" font-size="12.00" fill="#000000">MulBackward0</text>
</g>
<!-- 4917303312&#45;&gt;4917304208 -->
<g id="edge1" class="edge">
<title>4917303312&#45;&gt;4917304208</title>
<path fill="none" stroke="#000000" d="M355.358,-167.7059C353.7067,-146.0625 348.0435,-94.6533 329.9873,-56 325.2091,-45.7712 317.7785,-35.7395 310.9061,-27.668"/>
<polygon fill="#000000" stroke="#000000" points="313.3574,-25.1586 304.081,-20.04 308.1407,-29.8262 313.3574,-25.1586"/>
</g>
<!-- 4917305232 -->
<g id="node3" class="node">
<title>4917305232</title>
<polygon fill="#d3d3d3" stroke="#000000" points="391.1403,-321 298.8343,-321 298.8343,-301 391.1403,-301 391.1403,-321"/>
<text text-anchor="middle" x="344.9873" y="-307.4" font-family="Times,serif" font-size="12.00" fill="#000000">SumBackward0</text>
</g>
<!-- 4917305232&#45;&gt;4917303312 -->
<g id="edge2" class="edge">
<title>4917305232&#45;&gt;4917303312</title>
<path fill="none" stroke="#000000" d="M345.8505,-300.5637C347.6747,-278.5068 351.949,-226.8268 354.3233,-198.1189"/>
<polygon fill="#000000" stroke="#000000" points="357.822,-198.2784 355.1583,-188.0239 350.8458,-197.7013 357.822,-198.2784"/>
</g>
<!-- 4917304784 -->
<g id="node4" class="node">
<title>4917304784</title>
<polygon fill="#d3d3d3" stroke="#000000" points="376.8062,-461 287.1684,-461 287.1684,-441 376.8062,-441 376.8062,-461"/>
<text text-anchor="middle" x="331.9873" y="-447.4" font-family="Times,serif" font-size="12.00" fill="#000000">SubBackward0</text>
</g>
<!-- 4917304784&#45;&gt;4917305232 -->
<g id="edge3" class="edge">
<title>4917304784&#45;&gt;4917305232</title>
<path fill="none" stroke="#000000" d="M332.9222,-440.9315C335.0388,-418.1378 340.2327,-362.2033 343.0666,-331.6849"/>
<polygon fill="#000000" stroke="#000000" points="346.5861,-331.6358 344.0258,-321.3549 339.6161,-330.9885 346.5861,-331.6358"/>
</g>
<!-- 4845176208 -->
<g id="node5" class="node">
<title>4845176208</title>
<polygon fill="#d3d3d3" stroke="#000000" points="376.8062,-524 287.1684,-524 287.1684,-504 376.8062,-504 376.8062,-524"/>
<text text-anchor="middle" x="331.9873" y="-510.4" font-family="Times,serif" font-size="12.00" fill="#000000">SubBackward0</text>
</g>
<!-- 4845176208&#45;&gt;4917304784 -->
<g id="edge4" class="edge">
<title>4845176208&#45;&gt;4917304784</title>
<path fill="none" stroke="#000000" d="M331.9873,-503.878C331.9873,-495.2041 331.9873,-482.4355 331.9873,-471.6186"/>
<polygon fill="#000000" stroke="#000000" points="335.4874,-471.3062 331.9873,-461.3062 328.4874,-471.3062 335.4874,-471.3062"/>
</g>
<!-- 4917302544 -->
<g id="node6" class="node">
<title>4917302544</title>
<polygon fill="#d3d3d3" stroke="#000000" points="293.7984,-580 202.1762,-580 202.1762,-560 293.7984,-560 293.7984,-580"/>
<text text-anchor="middle" x="247.9873" y="-566.4" font-family="Times,serif" font-size="12.00" fill="#000000">AddBackward0</text>
</g>
<!-- 4917302544&#45;&gt;4845176208 -->
<g id="edge5" class="edge">
<title>4917302544&#45;&gt;4845176208</title>
<path fill="none" stroke="#000000" d="M263.0048,-559.9883C275.5884,-551.5993 293.7758,-539.4743 308.3167,-529.7804"/>
<polygon fill="#000000" stroke="#000000" points="310.4375,-532.573 316.8166,-524.1138 306.5546,-526.7487 310.4375,-532.573"/>
</g>
<!-- 4917305488 -->
<g id="node7" class="node">
<title>4917305488</title>
<polygon fill="#d3d3d3" stroke="#000000" points="225.9658,-636 122.0088,-636 122.0088,-616 225.9658,-616 225.9658,-636"/>
<text text-anchor="middle" x="173.9873" y="-622.4" font-family="Times,serif" font-size="12.00" fill="#000000">AddmmBackward</text>
</g>
<!-- 4917305488&#45;&gt;4917302544 -->
<g id="edge6" class="edge">
<title>4917305488&#45;&gt;4917302544</title>
<path fill="none" stroke="#000000" d="M187.217,-615.9883C198.0258,-607.8087 213.528,-596.0773 226.1695,-586.5108"/>
<polygon fill="#000000" stroke="#000000" points="228.5094,-589.1293 234.3715,-580.3039 224.2853,-583.5474 228.5094,-589.1293"/>
</g>
<!-- 4845176272 -->
<g id="node21" class="node">
<title>4845176272</title>
<polygon fill="#d3d3d3" stroke="#000000" points="261.9619,-524 178.0127,-524 178.0127,-504 261.9619,-504 261.9619,-524"/>
<text text-anchor="middle" x="219.9873" y="-510.4" font-family="Times,serif" font-size="12.00" fill="#000000">ExpBackward</text>
</g>
<!-- 4917305488&#45;&gt;4845176272 -->
<g id="edge22" class="edge">
<title>4917305488&#45;&gt;4845176272</title>
<path fill="none" stroke="#000000" d="M176.0673,-615.8913C178.9662,-602.7035 184.8023,-579.0644 192.9873,-560 196.9785,-550.7038 202.4804,-540.9645 207.4768,-532.8532"/>
<polygon fill="#000000" stroke="#000000" points="210.5665,-534.5175 212.989,-524.2033 204.6632,-530.7555 210.5665,-534.5175"/>
</g>
<!-- 4917306768 -->
<g id="node29" class="node">
<title>4917306768</title>
<polygon fill="#d3d3d3" stroke="#000000" points="181.7984,-391 90.1762,-391 90.1762,-371 181.7984,-371 181.7984,-391"/>
<text text-anchor="middle" x="135.9873" y="-377.4" font-family="Times,serif" font-size="12.00" fill="#000000">AddBackward0</text>
</g>
<!-- 4917305488&#45;&gt;4917306768 -->
<g id="edge35" class="edge">
<title>4917305488&#45;&gt;4917306768</title>
<path fill="none" stroke="#000000" d="M172.4029,-615.7846C166.657,-578.7388 146.8476,-451.0204 139.1145,-401.1624"/>
<polygon fill="#000000" stroke="#000000" points="142.5699,-400.6044 137.5785,-391.259 135.6526,-401.6774 142.5699,-400.6044"/>
</g>
<!-- 4917305616 -->
<g id="node8" class="node">
<title>4917305616</title>
<polygon fill="#add8e6" stroke="#000000" points="200.9873,-706 146.9873,-706 146.9873,-672 200.9873,-672 200.9873,-706"/>
<text text-anchor="middle" x="173.9873" y="-678.4" font-family="Times,serif" font-size="12.00" fill="#000000"> (40)</text>
</g>
<!-- 4917305616&#45;&gt;4917305488 -->
<g id="edge7" class="edge">
<title>4917305616&#45;&gt;4917305488</title>
<path fill="none" stroke="#000000" d="M173.9873,-671.785C173.9873,-663.9703 173.9873,-654.6675 173.9873,-646.4951"/>
<polygon fill="#000000" stroke="#000000" points="177.4874,-646.2974 173.9873,-636.2974 170.4874,-646.2974 177.4874,-646.2974"/>
</g>
<!-- 4917305680 -->
<g id="node9" class="node">
<title>4917305680</title>
<polygon fill="#d3d3d3" stroke="#000000" points="312.7964,-699 219.1782,-699 219.1782,-679 312.7964,-679 312.7964,-699"/>
<text text-anchor="middle" x="265.9873" y="-685.4" font-family="Times,serif" font-size="12.00" fill="#000000">ReluBackward0</text>
</g>
<!-- 4917305680&#45;&gt;4917305488 -->
<g id="edge8" class="edge">
<title>4917305680&#45;&gt;4917305488</title>
<path fill="none" stroke="#000000" d="M251.2059,-678.878C236.5861,-668.8666 214.0005,-653.4003 197.0255,-641.7762"/>
<polygon fill="#000000" stroke="#000000" points="198.9604,-638.8592 188.732,-636.0969 195.0054,-644.6348 198.9604,-638.8592"/>
</g>
<!-- 4917305552 -->
<g id="node17" class="node">
<title>4917305552</title>
<polygon fill="#d3d3d3" stroke="#000000" points="409.9658,-636 306.0088,-636 306.0088,-616 409.9658,-616 409.9658,-636"/>
<text text-anchor="middle" x="357.9873" y="-622.4" font-family="Times,serif" font-size="12.00" fill="#000000">AddmmBackward</text>
</g>
<!-- 4917305680&#45;&gt;4917305552 -->
<g id="edge18" class="edge">
<title>4917305680&#45;&gt;4917305552</title>
<path fill="none" stroke="#000000" d="M280.7687,-678.878C295.3885,-668.8666 317.9741,-653.4003 334.9491,-641.7762"/>
<polygon fill="#000000" stroke="#000000" points="336.9692,-644.6348 343.2426,-636.0969 333.0142,-638.8592 336.9692,-644.6348"/>
</g>
<!-- 4917305936 -->
<g id="node10" class="node">
<title>4917305936</title>
<polygon fill="#d3d3d3" stroke="#000000" points="317.9658,-769 214.0088,-769 214.0088,-749 317.9658,-749 317.9658,-769"/>
<text text-anchor="middle" x="265.9873" y="-755.4" font-family="Times,serif" font-size="12.00" fill="#000000">AddmmBackward</text>
</g>
<!-- 4917305936&#45;&gt;4917305680 -->
<g id="edge9" class="edge">
<title>4917305936&#45;&gt;4917305680</title>
<path fill="none" stroke="#000000" d="M265.9873,-748.9707C265.9873,-738.6786 265.9873,-722.3754 265.9873,-709.3639"/>
<polygon fill="#000000" stroke="#000000" points="269.4874,-709.0107 265.9873,-699.0107 262.4874,-709.0107 269.4874,-709.0107"/>
</g>
<!-- 4917306320 -->
<g id="node11" class="node">
<title>4917306320</title>
<polygon fill="#add8e6" stroke="#000000" points="252.9873,-846 198.9873,-846 198.9873,-812 252.9873,-812 252.9873,-846"/>
<text text-anchor="middle" x="225.9873" y="-818.4" font-family="Times,serif" font-size="12.00" fill="#000000"> (400)</text>
</g>
<!-- 4917306320&#45;&gt;4917305936 -->
<g id="edge10" class="edge">
<title>4917306320&#45;&gt;4917305936</title>
<path fill="none" stroke="#000000" d="M235.8749,-811.6966C241.6847,-801.5295 249.0395,-788.6587 255.026,-778.1823"/>
<polygon fill="#000000" stroke="#000000" points="258.133,-779.7995 260.0556,-769.3805 252.0553,-776.3265 258.133,-779.7995"/>
</g>
<!-- 4917306256 -->
<g id="node12" class="node">
<title>4917306256</title>
<polygon fill="#d3d3d3" stroke="#000000" points="342.9619,-839 271.0127,-839 271.0127,-819 342.9619,-819 342.9619,-839"/>
<text text-anchor="middle" x="306.9873" y="-825.4" font-family="Times,serif" font-size="12.00" fill="#000000">TBackward</text>
</g>
<!-- 4917306256&#45;&gt;4917305936 -->
<g id="edge11" class="edge">
<title>4917306256&#45;&gt;4917305936</title>
<path fill="none" stroke="#000000" d="M301.113,-818.9707C294.8412,-808.2627 284.7584,-791.0482 277.0008,-777.8035"/>
<polygon fill="#000000" stroke="#000000" points="279.9249,-775.8706 271.8507,-769.0107 273.8847,-779.4085 279.9249,-775.8706"/>
</g>
<!-- 4917306064 -->
<g id="node13" class="node">
<title>4917306064</title>
<polygon fill="#add8e6" stroke="#000000" points="341.4795,-916 272.4951,-916 272.4951,-882 341.4795,-882 341.4795,-916"/>
<text text-anchor="middle" x="306.9873" y="-888.4" font-family="Times,serif" font-size="12.00" fill="#000000"> (400, 784)</text>
</g>
<!-- 4917306064&#45;&gt;4917306256 -->
<g id="edge12" class="edge">
<title>4917306064&#45;&gt;4917306256</title>
<path fill="none" stroke="#000000" d="M306.9873,-881.6966C306.9873,-871.9445 306.9873,-859.7049 306.9873,-849.4768"/>
<polygon fill="#000000" stroke="#000000" points="310.4874,-849.3805 306.9873,-839.3805 303.4874,-849.3806 310.4874,-849.3805"/>
</g>
<!-- 4917305744 -->
<g id="node14" class="node">
<title>4917305744</title>
<polygon fill="#d3d3d3" stroke="#000000" points="128.9619,-699 57.0127,-699 57.0127,-679 128.9619,-679 128.9619,-699"/>
<text text-anchor="middle" x="92.9873" y="-685.4" font-family="Times,serif" font-size="12.00" fill="#000000">TBackward</text>
</g>
<!-- 4917305744&#45;&gt;4917305488 -->
<g id="edge13" class="edge">
<title>4917305744&#45;&gt;4917305488</title>
<path fill="none" stroke="#000000" d="M106.0014,-678.878C118.637,-669.0503 138.0309,-653.9661 152.8761,-642.4198"/>
<polygon fill="#000000" stroke="#000000" points="155.2608,-644.9991 161.0055,-636.0969 150.9632,-639.4736 155.2608,-644.9991"/>
</g>
<!-- 4917305872 -->
<g id="node15" class="node">
<title>4917305872</title>
<polygon fill="#add8e6" stroke="#000000" points="124.4795,-776 61.4951,-776 61.4951,-742 124.4795,-742 124.4795,-776"/>
<text text-anchor="middle" x="92.9873" y="-748.4" font-family="Times,serif" font-size="12.00" fill="#000000"> (40, 400)</text>
</g>
<!-- 4917305872&#45;&gt;4917305744 -->
<g id="edge14" class="edge">
<title>4917305872&#45;&gt;4917305744</title>
<path fill="none" stroke="#000000" d="M92.9873,-741.6966C92.9873,-731.9445 92.9873,-719.7049 92.9873,-709.4768"/>
<polygon fill="#000000" stroke="#000000" points="96.4874,-709.3805 92.9873,-699.3805 89.4874,-709.3806 96.4874,-709.3805"/>
</g>
<!-- 4917308240 -->
<g id="node16" class="node">
<title>4917308240</title>
<polygon fill="#d3d3d3" stroke="#000000" points="403.9717,-580 312.0029,-580 312.0029,-560 403.9717,-560 403.9717,-580"/>
<text text-anchor="middle" x="357.9873" y="-566.4" font-family="Times,serif" font-size="12.00" fill="#000000">PowBackward0</text>
</g>
<!-- 4917308240&#45;&gt;4845176208 -->
<g id="edge15" class="edge">
<title>4917308240&#45;&gt;4845176208</title>
<path fill="none" stroke="#000000" d="M353.339,-559.9883C349.943,-552.6738 345.2284,-542.5192 341.093,-533.6122"/>
<polygon fill="#000000" stroke="#000000" points="344.157,-531.9001 336.7712,-524.3039 337.8079,-534.8479 344.157,-531.9001"/>
</g>
<!-- 4917305552&#45;&gt;4917308240 -->
<g id="edge16" class="edge">
<title>4917305552&#45;&gt;4917308240</title>
<path fill="none" stroke="#000000" d="M357.9873,-615.9883C357.9873,-608.9098 357.9873,-599.1714 357.9873,-590.4779"/>
<polygon fill="#000000" stroke="#000000" points="361.4874,-590.3038 357.9873,-580.3039 354.4874,-590.3039 361.4874,-590.3038"/>
</g>
<!-- 4917307280 -->
<g id="node32" class="node">
<title>4917307280</title>
<polygon fill="#d3d3d3" stroke="#000000" points="512.1364,-580 421.8382,-580 421.8382,-560 512.1364,-560 512.1364,-580"/>
<text text-anchor="middle" x="466.9873" y="-566.4" font-family="Times,serif" font-size="12.00" fill="#000000">MulBackward0</text>
</g>
<!-- 4917305552&#45;&gt;4917307280 -->
<g id="edge34" class="edge">
<title>4917305552&#45;&gt;4917307280</title>
<path fill="none" stroke="#000000" d="M377.4743,-615.9883C394.4192,-607.2827 419.1949,-594.5539 438.3871,-584.6937"/>
<polygon fill="#000000" stroke="#000000" points="440.0062,-587.7968 447.3015,-580.1138 436.8073,-581.5705 440.0062,-587.7968"/>
</g>
<!-- 4917306192 -->
<g id="node18" class="node">
<title>4917306192</title>
<polygon fill="#add8e6" stroke="#000000" points="384.9873,-706 330.9873,-706 330.9873,-672 384.9873,-672 384.9873,-706"/>
<text text-anchor="middle" x="357.9873" y="-678.4" font-family="Times,serif" font-size="12.00" fill="#000000"> (40)</text>
</g>
<!-- 4917306192&#45;&gt;4917305552 -->
<g id="edge17" class="edge">
<title>4917306192&#45;&gt;4917305552</title>
<path fill="none" stroke="#000000" d="M357.9873,-671.785C357.9873,-663.9703 357.9873,-654.6675 357.9873,-646.4951"/>
<polygon fill="#000000" stroke="#000000" points="361.4874,-646.2974 357.9873,-636.2974 354.4874,-646.2974 361.4874,-646.2974"/>
</g>
<!-- 4917306128 -->
<g id="node19" class="node">
<title>4917306128</title>
<polygon fill="#d3d3d3" stroke="#000000" points="474.9619,-699 403.0127,-699 403.0127,-679 474.9619,-679 474.9619,-699"/>
<text text-anchor="middle" x="438.9873" y="-685.4" font-family="Times,serif" font-size="12.00" fill="#000000">TBackward</text>
</g>
<!-- 4917306128&#45;&gt;4917305552 -->
<g id="edge19" class="edge">
<title>4917306128&#45;&gt;4917305552</title>
<path fill="none" stroke="#000000" d="M425.9733,-678.878C413.3377,-669.0503 393.9437,-653.9661 379.0985,-642.4198"/>
<polygon fill="#000000" stroke="#000000" points="381.0114,-639.4736 370.9691,-636.0969 376.7138,-644.9991 381.0114,-639.4736"/>
</g>
<!-- 4917306448 -->
<g id="node20" class="node">
<title>4917306448</title>
<polygon fill="#add8e6" stroke="#000000" points="470.4795,-776 407.4951,-776 407.4951,-742 470.4795,-742 470.4795,-776"/>
<text text-anchor="middle" x="438.9873" y="-748.4" font-family="Times,serif" font-size="12.00" fill="#000000"> (40, 400)</text>
</g>
<!-- 4917306448&#45;&gt;4917306128 -->
<g id="edge20" class="edge">
<title>4917306448&#45;&gt;4917306128</title>
<path fill="none" stroke="#000000" d="M438.9873,-741.6966C438.9873,-731.9445 438.9873,-719.7049 438.9873,-709.4768"/>
<polygon fill="#000000" stroke="#000000" points="442.4874,-709.3805 438.9873,-699.3805 435.4874,-709.3806 442.4874,-709.3805"/>
</g>
<!-- 4845176272&#45;&gt;4917304784 -->
<g id="edge21" class="edge">
<title>4845176272&#45;&gt;4917304784</title>
<path fill="none" stroke="#000000" d="M237.982,-503.878C256.1066,-493.6829 284.2879,-477.8309 305.0713,-466.1402"/>
<polygon fill="#000000" stroke="#000000" points="307.0374,-469.0501 314.0372,-461.0969 303.6055,-462.9491 307.0374,-469.0501"/>
</g>
<!-- 4917305296 -->
<g id="node22" class="node">
<title>4917305296</title>
<polygon fill="#d3d3d3" stroke="#000000" points="320.7923,-76 157.1823,-76 157.1823,-56 320.7923,-56 320.7923,-76"/>
<text text-anchor="middle" x="238.9873" y="-62.4" font-family="Times,serif" font-size="12.00" fill="#000000">BinaryCrossEntropyBackward</text>
</g>
<!-- 4917305296&#45;&gt;4917304208 -->
<g id="edge23" class="edge">
<title>4917305296&#45;&gt;4917304208</title>
<path fill="none" stroke="#000000" d="M248.8202,-55.9883C256.5448,-48.1233 267.4945,-36.9745 276.6781,-27.6239"/>
<polygon fill="#000000" stroke="#000000" points="279.3574,-29.8909 283.8674,-20.3039 274.3632,-24.9859 279.3574,-29.8909"/>
</g>
<!-- 4917301520 -->
<g id="node23" class="node">
<title>4917301520</title>
<polygon fill="#d3d3d3" stroke="#000000" points="290.8081,-132 185.1665,-132 185.1665,-112 290.8081,-112 290.8081,-132"/>
<text text-anchor="middle" x="237.9873" y="-118.4" font-family="Times,serif" font-size="12.00" fill="#000000">SigmoidBackward</text>
</g>
<!-- 4917301520&#45;&gt;4917305296 -->
<g id="edge24" class="edge">
<title>4917301520&#45;&gt;4917305296</title>
<path fill="none" stroke="#000000" d="M238.1661,-111.9883C238.2925,-104.9098 238.4664,-95.1714 238.6216,-86.4779"/>
<polygon fill="#000000" stroke="#000000" points="242.1241,-86.3648 238.8033,-76.3039 235.1252,-86.2398 242.1241,-86.3648"/>
</g>
<!-- 4845175632 -->
<g id="node24" class="node">
<title>4845175632</title>
<polygon fill="#d3d3d3" stroke="#000000" points="287.9658,-188 184.0088,-188 184.0088,-168 287.9658,-168 287.9658,-188"/>
<text text-anchor="middle" x="235.9873" y="-174.4" font-family="Times,serif" font-size="12.00" fill="#000000">AddmmBackward</text>
</g>
<!-- 4845175632&#45;&gt;4917301520 -->
<g id="edge25" class="edge">
<title>4845175632&#45;&gt;4917301520</title>
<path fill="none" stroke="#000000" d="M236.3449,-167.9883C236.5977,-160.9098 236.9455,-151.1714 237.256,-142.4779"/>
<polygon fill="#000000" stroke="#000000" points="240.7601,-142.4225 237.6193,-132.3039 233.7645,-142.1726 240.7601,-142.4225"/>
</g>
<!-- 4917305424 -->
<g id="node25" class="node">
<title>4917305424</title>
<polygon fill="#add8e6" stroke="#000000" points="333.9873,-258 279.9873,-258 279.9873,-224 333.9873,-224 333.9873,-258"/>
<text text-anchor="middle" x="306.9873" y="-230.4" font-family="Times,serif" font-size="12.00" fill="#000000"> (784)</text>
</g>
<!-- 4917305424&#45;&gt;4845175632 -->
<g id="edge26" class="edge">
<title>4917305424&#45;&gt;4845175632</title>
<path fill="none" stroke="#000000" d="M287.5862,-223.785C277.4782,-214.8159 265.161,-203.8865 255.0961,-194.9557"/>
<polygon fill="#000000" stroke="#000000" points="257.3953,-192.3166 247.5923,-188.2974 252.7493,-197.5525 257.3953,-192.3166"/>
</g>
<!-- 4917305808 -->
<g id="node26" class="node">
<title>4917305808</title>
<polygon fill="#d3d3d3" stroke="#000000" points="171.7964,-251 78.1782,-251 78.1782,-231 171.7964,-231 171.7964,-251"/>
<text text-anchor="middle" x="124.9873" y="-237.4" font-family="Times,serif" font-size="12.00" fill="#000000">ReluBackward0</text>
</g>
<!-- 4917305808&#45;&gt;4845175632 -->
<g id="edge27" class="edge">
<title>4917305808&#45;&gt;4845175632</title>
<path fill="none" stroke="#000000" d="M142.8214,-230.878C160.7841,-220.6829 188.7138,-204.8309 209.3117,-193.1402"/>
<polygon fill="#000000" stroke="#000000" points="211.2283,-196.0769 218.1975,-188.0969 207.773,-189.9891 211.2283,-196.0769"/>
</g>
<!-- 4917306000 -->
<g id="node27" class="node">
<title>4917306000</title>
<polygon fill="#d3d3d3" stroke="#000000" points="176.9658,-321 73.0088,-321 73.0088,-301 176.9658,-301 176.9658,-321"/>
<text text-anchor="middle" x="124.9873" y="-307.4" font-family="Times,serif" font-size="12.00" fill="#000000">AddmmBackward</text>
</g>
<!-- 4917306000&#45;&gt;4917305808 -->
<g id="edge28" class="edge">
<title>4917306000&#45;&gt;4917305808</title>
<path fill="none" stroke="#000000" d="M124.9873,-300.9707C124.9873,-290.6786 124.9873,-274.3754 124.9873,-261.3639"/>
<polygon fill="#000000" stroke="#000000" points="128.4874,-261.0107 124.9873,-251.0107 121.4874,-261.0107 128.4874,-261.0107"/>
</g>
<!-- 4917306832 -->
<g id="node28" class="node">
<title>4917306832</title>
<polygon fill="#add8e6" stroke="#000000" points="253.9873,-398 199.9873,-398 199.9873,-364 253.9873,-364 253.9873,-398"/>
<text text-anchor="middle" x="226.9873" y="-370.4" font-family="Times,serif" font-size="12.00" fill="#000000"> (400)</text>
</g>
<!-- 4917306832&#45;&gt;4917306000 -->
<g id="edge29" class="edge">
<title>4917306832&#45;&gt;4917306000</title>
<path fill="none" stroke="#000000" d="M202.0353,-363.8761C185.514,-352.5379 164.0074,-337.7785 147.9161,-326.7355"/>
<polygon fill="#000000" stroke="#000000" points="149.8253,-323.8008 139.5997,-321.0281 145.8644,-329.5724 149.8253,-323.8008"/>
</g>
<!-- 4917306768&#45;&gt;4917306000 -->
<g id="edge30" class="edge">
<title>4917306768&#45;&gt;4917306000</title>
<path fill="none" stroke="#000000" d="M134.4113,-370.9707C132.7776,-360.5746 130.1802,-344.0455 128.1255,-330.9706"/>
<polygon fill="#000000" stroke="#000000" points="131.5704,-330.3461 126.5604,-321.0107 124.6553,-331.4328 131.5704,-330.3461"/>
</g>
<!-- 4917307088 -->
<g id="node30" class="node">
<title>4917307088</title>
<polygon fill="#d3d3d3" stroke="#000000" points="498.1364,-461 407.8382,-461 407.8382,-441 498.1364,-441 498.1364,-461"/>
<text text-anchor="middle" x="452.9873" y="-447.4" font-family="Times,serif" font-size="12.00" fill="#000000">MulBackward0</text>
</g>
<!-- 4917307088&#45;&gt;4917306768 -->
<g id="edge31" class="edge">
<title>4917307088&#45;&gt;4917306768</title>
<path fill="none" stroke="#000000" d="M415.1772,-440.943C405.6771,-438.544 395.4829,-436.0788 385.9873,-434 299.895,-415.1523 276.568,-419.049 190.9873,-398 186.2045,-396.8236 181.2249,-395.4702 176.3016,-394.0515"/>
<polygon fill="#000000" stroke="#000000" points="176.9391,-390.5893 166.3558,-391.0834 174.9373,-397.2969 176.9391,-390.5893"/>
</g>
<!-- 4917307216 -->
<g id="node31" class="node">
<title>4917307216</title>
<polygon fill="#d3d3d3" stroke="#000000" points="501.9619,-524 418.0127,-524 418.0127,-504 501.9619,-504 501.9619,-524"/>
<text text-anchor="middle" x="459.9873" y="-510.4" font-family="Times,serif" font-size="12.00" fill="#000000">ExpBackward</text>
</g>
<!-- 4917307216&#45;&gt;4917307088 -->
<g id="edge32" class="edge">
<title>4917307216&#45;&gt;4917307088</title>
<path fill="none" stroke="#000000" d="M458.8626,-503.878C457.8887,-495.1128 456.4502,-482.1662 455.2404,-471.2777"/>
<polygon fill="#000000" stroke="#000000" points="458.7154,-470.8585 454.1324,-461.3062 451.7583,-471.6316 458.7154,-470.8585"/>
</g>
<!-- 4917307280&#45;&gt;4917307216 -->
<g id="edge33" class="edge">
<title>4917307280&#45;&gt;4917307216</title>
<path fill="none" stroke="#000000" d="M465.7358,-559.9883C464.851,-552.9098 463.6337,-543.1714 462.547,-534.4779"/>
<polygon fill="#000000" stroke="#000000" points="465.9887,-533.7925 461.2753,-524.3039 459.0427,-534.6608 465.9887,-533.7925"/>
</g>
<!-- 4917306896 -->
<g id="node33" class="node">
<title>4917306896</title>
<polygon fill="#d3d3d3" stroke="#000000" points="71.9619,-391 .0127,-391 .0127,-371 71.9619,-371 71.9619,-391"/>
<text text-anchor="middle" x="35.9873" y="-377.4" font-family="Times,serif" font-size="12.00" fill="#000000">TBackward</text>
</g>
<!-- 4917306896&#45;&gt;4917306000 -->
<g id="edge36" class="edge">
<title>4917306896&#45;&gt;4917306000</title>
<path fill="none" stroke="#000000" d="M48.7388,-370.9707C63.1463,-359.639 86.8183,-341.0205 103.9689,-327.5314"/>
<polygon fill="#000000" stroke="#000000" points="106.563,-329.9439 112.2594,-321.0107 102.2355,-324.4418 106.563,-329.9439"/>
</g>
<!-- 4917307024 -->
<g id="node34" class="node">
<title>4917307024</title>
<polygon fill="#add8e6" stroke="#000000" points="67.4795,-468 4.4951,-468 4.4951,-434 67.4795,-434 67.4795,-468"/>
<text text-anchor="middle" x="35.9873" y="-440.4" font-family="Times,serif" font-size="12.00" fill="#000000"> (400, 40)</text>
</g>
<!-- 4917307024&#45;&gt;4917306896 -->
<g id="edge37" class="edge">
<title>4917307024&#45;&gt;4917306896</title>
<path fill="none" stroke="#000000" d="M35.9873,-433.6966C35.9873,-423.9445 35.9873,-411.7049 35.9873,-401.4768"/>
<polygon fill="#000000" stroke="#000000" points="39.4874,-401.3805 35.9873,-391.3805 32.4874,-401.3806 39.4874,-401.3805"/>
</g>
<!-- 4917306512 -->
<g id="node35" class="node">
<title>4917306512</title>
<polygon fill="#d3d3d3" stroke="#000000" points="261.9619,-251 190.0127,-251 190.0127,-231 261.9619,-231 261.9619,-251"/>
<text text-anchor="middle" x="225.9873" y="-237.4" font-family="Times,serif" font-size="12.00" fill="#000000">TBackward</text>
</g>
<!-- 4917306512&#45;&gt;4845175632 -->
<g id="edge38" class="edge">
<title>4917306512&#45;&gt;4845175632</title>
<path fill="none" stroke="#000000" d="M227.594,-230.878C228.9853,-222.1128 231.0403,-209.1662 232.7686,-198.2777"/>
<polygon fill="#000000" stroke="#000000" points="236.2404,-198.7313 234.3514,-188.3062 229.3269,-197.6339 236.2404,-198.7313"/>
</g>
<!-- 4917306704 -->
<g id="node36" class="node">
<title>4917306704</title>
<polygon fill="#add8e6" stroke="#000000" points="263.4795,-328 194.4951,-328 194.4951,-294 263.4795,-294 263.4795,-328"/>
<text text-anchor="middle" x="228.9873" y="-300.4" font-family="Times,serif" font-size="12.00" fill="#000000"> (784, 400)</text>
</g>
<!-- 4917306704&#45;&gt;4917306512 -->
<g id="edge39" class="edge">
<title>4917306704&#45;&gt;4917306512</title>
<path fill="none" stroke="#000000" d="M228.2457,-293.6966C227.8278,-283.9445 227.3032,-271.7049 226.8649,-261.4768"/>
<polygon fill="#000000" stroke="#000000" points="230.3572,-261.2215 226.4322,-251.3805 223.3637,-261.5213 230.3572,-261.2215"/>
</g>
</g>
</svg>
